<?xml version="1.0" encoding="utf-8"?>
<!-- Generator: Adobe Illustrator 23.0.1, SVG Export Plug-In . SVG Version: 6.00 Build 0)  -->
<svg version="1.1" id="Layer_1" xmlns="http://www.w3.org/2000/svg" xmlns:xlink="http://www.w3.org/1999/xlink" x="0px" y="0px"
	 viewBox="0 0 512 512" style="enable-background:new 0 0 512 512;" 
	 
	 xml:space="preserve">
<style type="text/css">
	.st0{fill:#010101;}
</style>
<title>01</title>
<path class="st0"  d="M502.8,270L263.7,30.9c0,0,0,0,0,0c-4.2-4.2-11.1-4.2-15.4,0L9.2,270c-2,2-3.2,4.8-3.2,7.7v195.7
	c0,2.9,1.1,5.6,3.2,7.7c4.2,4.2,11.1,4.3,15.4,0L256,249.6l231.5,231.5c2,2,4.8,3.2,7.7,3.2c1.4,0,2.8-0.3,4.2-0.9
	c4-1.7,6.7-5.6,6.7-10V277.7C506,274.9,504.9,272.1,502.8,270z M484.3,447.2L263.7,226.6c-2-2-4.8-3.2-7.7-3.2
	c-2.9,0-5.6,1.1-7.7,3.2L27.7,447.2V282.2L256,54l228.3,228.2V447.2z"/>
</svg>
